<?xml version="1.0" encoding="UTF-8"?>
<svg id="Mark" xmlns="http://www.w3.org/2000/svg" viewBox="0 0 32 32">
  <defs>
    <style>
      .cls-1 {
        fill: #e8362e;
        stroke-width: 0px;
      }
    </style>
  </defs>
  <g id="v4">
    <path class="cls-1" d="m24.92,28.67c-.78,0-1.52-.43-1.89-1.17-.52-1.04-.1-2.31.94-2.83,1.96-.98,3.3-2.9,3.69-5.28.28-1.75,0-3.52-.76-4.97-.29-.55-1.11-.43-1.22.18-.02.11-.04.22-.06.34-.47,2.42-1.66,4.87-3.42,7.08-2.94,3.67-6.37,5.74-9.21,5.74-.86,0-1.67-.19-2.39-.58-1.2-.65-3.78-2.84-1.73-8.98.9-2.7,2.45-5.12,4.48-6.99,1.07-.99,2.25-1.81,3.49-2.43.61-.3.39-1.22-.29-1.23,0,0-.02,0-.03,0h0c-4.78,0-8.51,3.48-10.4,6.74-2.03,3.49-2.46,7.28-1.11,9.65.58,1.01.23,2.3-.79,2.88-1.01.58-2.3.23-2.88-.79-2.12-3.71-1.69-9.02,1.13-13.86,1.46-2.51,3.44-4.66,5.71-6.2,2.56-1.73,5.44-2.65,8.35-2.65h0c3.56,0,6.45,1.55,8.05,4.27,1.59.35,3.01,1.11,4.15,2.24,2.57,2.57,3.73,6.4,3.11,10.23-.61,3.73-2.78,6.79-5.97,8.38-.3.15-.63.22-.94.22Zm-3.29-16.28c0-.41-.39-.7-.79-.61-.02,0-.04,0-.07.02-2.67.63-6.34,3.03-7.91,7.74-.88,2.63-.76,3.57-.25,3.93.41.29,1.18.08,2.03-.41,1.34-.77,2.9-1.99,4.25-3.68,1.82-2.28,2.78-4.81,2.73-6.98Z"/>
  </g>
</svg>